<svg width="55" height="54" viewBox="0 0 55 54" fill="none" xmlns="http://www.w3.org/2000/svg">
<g id="Frame 71">
<rect x="0.5" width="54" height="54" rx="27" fill="#FC7F00"/>
<path id="Vector" d="M41.0227 35.0426H28.4664C27.926 35.0426 27.4589 34.8468 27.0654 34.4552C26.6718 34.0636 26.475 33.599 26.475 33.0612V17.9674C26.475 17.4296 26.6718 16.9673 27.0654 16.5804C27.4589 16.1935 27.926 16 28.4664 16H36.176C36.4415 16 36.6982 16.0531 36.946 16.1593C37.1938 16.2655 37.4124 16.4082 37.602 16.5874L42.4096 21.3707C42.5898 21.5593 42.7332 21.7769 42.8399 22.0234C42.9466 22.27 43 22.5254 43 22.7895V33.0612C43 33.599 42.8032 34.0636 42.4096 34.4552C42.016 34.8468 41.5537 35.0426 41.0227 35.0426ZM41.0227 22.4634L36.4039 17.9674V20.9809C36.4039 21.3984 36.5473 21.7499 36.8342 22.0353C37.1211 22.3207 37.4743 22.4634 37.894 22.4634H41.0227ZM24.9773 38.5C24.4369 38.5 23.9722 38.3065 23.5833 37.9196C23.1944 37.5327 23 37.0704 23 36.5327V22.2702C23 21.9894 23.0942 21.7553 23.2827 21.5678C23.4712 21.3803 23.7065 21.2865 23.9887 21.2865C24.2708 21.2865 24.5062 21.3803 24.6946 21.5678C24.8831 21.7553 24.9773 21.9894 24.9773 22.2702V36.5327H36.5178C36.8 36.5327 37.0353 36.6264 37.2238 36.814C37.4122 37.0015 37.5065 37.2356 37.5065 37.5163C37.5065 37.7971 37.4122 38.0312 37.2238 38.2186C37.0353 38.4062 36.8 38.5 36.5178 38.5H24.9773Z" fill="white"/>
<g id="Group 4">
<path id="Line 8" d="M14 22L14 32" stroke="white" stroke-width="3" stroke-linecap="round"/>
<path id="Line 9" d="M9 27H19" stroke="white" stroke-width="3" stroke-linecap="round"/>
</g>
</g>
</svg>
