<svg width="54" height="54" viewBox="0 0 54 54" fill="none" xmlns="http://www.w3.org/2000/svg">
<g id="Frame 71">
<rect x="0.5" y="0.5" width="53" height="53" rx="26.5" fill="white"/>
<rect x="0.5" y="0.5" width="53" height="53" rx="26.5" stroke="#666666"/>
<path id="Vector" d="M40.5227 35.0426H27.9664C27.426 35.0426 26.9589 34.8468 26.5654 34.4552C26.1718 34.0636 25.975 33.599 25.975 33.0612V17.9674C25.975 17.4296 26.1718 16.9673 26.5654 16.5804C26.9589 16.1935 27.426 16 27.9664 16H35.676C35.9415 16 36.1982 16.0531 36.446 16.1593C36.6938 16.2655 36.9124 16.4082 37.102 16.5874L41.9096 21.3707C42.0898 21.5593 42.2332 21.7769 42.3399 22.0234C42.4466 22.27 42.5 22.5254 42.5 22.7895V33.0612C42.5 33.599 42.3032 34.0636 41.9096 34.4552C41.516 34.8468 41.0537 35.0426 40.5227 35.0426ZM40.5227 22.4634L35.9039 17.9674V20.9809C35.9039 21.3984 36.0473 21.7499 36.3342 22.0353C36.6211 22.3207 36.9743 22.4634 37.394 22.4634H40.5227ZM24.4773 38.5C23.9369 38.5 23.4722 38.3065 23.0833 37.9196C22.6944 37.5327 22.5 37.0704 22.5 36.5327V22.2702C22.5 21.9894 22.5942 21.7553 22.7827 21.5678C22.9712 21.3803 23.2065 21.2865 23.4887 21.2865C23.7708 21.2865 24.0062 21.3803 24.1946 21.5678C24.3831 21.7553 24.4773 21.9894 24.4773 22.2702V36.5327H36.0178C36.3 36.5327 36.5353 36.6264 36.7238 36.814C36.9122 37.0015 37.0065 37.2356 37.0065 37.5163C37.0065 37.7971 36.9122 38.0312 36.7238 38.2186C36.5353 38.4062 36.3 38.5 36.0178 38.5H24.4773Z" fill="#666666"/>
<g id="Group 4">
<path id="Line 8" d="M13.5 22L13.5 32" stroke="#666666" stroke-width="3" stroke-linecap="round"/>
<path id="Line 9" d="M8.5 27H18.5" stroke="#666666" stroke-width="3" stroke-linecap="round"/>
</g>
</g>
</svg>
