<svg width="18" height="18" viewBox="0 0 18 18" fill="none" xmlns="http://www.w3.org/2000/svg">
<path id="Vector" d="M9.64996 15.5314C9.26321 15.8112 8.71531 15.8112 8.32856 15.5314L1.72158 10.754C1.33483 10.4742 0.797672 10.4742 0.410922 10.754C-0.136974 11.1538 -0.136974 11.9234 0.410922 12.3232L7.67323 17.5802C8.44673 18.1399 9.53178 18.1399 10.316 17.5802L17.5783 12.3232C18.1262 11.9234 18.1262 11.1538 17.5783 10.754L17.5676 10.744C17.1808 10.4642 16.6437 10.4642 16.2569 10.744L9.64996 15.5314ZM10.3268 12.513L17.5891 7.25597C18.137 6.85619 18.137 6.07662 17.5891 5.67685L10.3268 0.419767C9.55327 -0.139922 8.46822 -0.139922 7.68398 0.419767L0.421665 5.68684C-0.126231 6.08662 -0.126231 6.86619 0.421665 7.26596L7.68398 12.523C8.45748 13.0827 9.55327 13.0827 10.3268 12.513Z" fill="#FC7F00"/>
</svg>
